<svg width="21" height="18" viewBox="0 0 21 18" fill="none" xmlns="http://www.w3.org/2000/svg">
<path fill-rule="evenodd" clip-rule="evenodd" d="M0.333313 8.99999C0.333313 8.66847 0.465009 8.35053 0.69943 8.11611C0.93385 7.88169 1.25179 7.74999 1.58331 7.74999H16.0658L10.6983 2.38499C10.4636 2.15028 10.3317 1.83193 10.3317 1.49999C10.3317 1.16805 10.4636 0.849709 10.6983 0.614992C10.933 0.380276 11.2514 0.248413 11.5833 0.248413C11.9153 0.248413 12.2336 0.380276 12.4683 0.614992L19.9683 8.11499C20.0847 8.23111 20.1771 8.36905 20.2401 8.52091C20.3031 8.67277 20.3355 8.83557 20.3355 8.99999C20.3355 9.16441 20.3031 9.32721 20.2401 9.47908C20.1771 9.63094 20.0847 9.76888 19.9683 9.88499L12.4683 17.385C12.2336 17.6197 11.9153 17.7516 11.5833 17.7516C11.2514 17.7516 10.933 17.6197 10.6983 17.385C10.4636 17.1503 10.3317 16.8319 10.3317 16.5C10.3317 16.1681 10.4636 15.8497 10.6983 15.615L16.0658 10.25H1.58331C1.25179 10.25 0.93385 10.1183 0.69943 9.88388C0.465009 9.64946 0.333313 9.33151 0.333313 8.99999Z" fill="#5374FF"/>
</svg>
