<svg width="65" height="64" viewBox="0 0 65 64" fill="none" xmlns="http://www.w3.org/2000/svg">
<g clip-path="url(#clip0_24_3080)">
<path fill-rule="evenodd" clip-rule="evenodd" d="M32.1667 0.756012C20.4202 0.756012 10.8942 10.2795 10.8942 22.0285C10.8942 31.427 16.9892 39.401 25.4417 42.2135C26.5047 42.4105 26.8952 41.752 26.8952 41.19C26.8952 40.683 26.8752 39.007 26.8662 37.23C20.9477 38.5165 19.6992 34.72 19.6992 34.72C18.7317 32.261 17.3372 31.607 17.3372 31.607C15.4072 30.287 17.4822 30.314 17.4822 30.314C19.6187 30.464 20.7437 32.5065 20.7437 32.5065C22.6407 35.7585 25.7202 34.818 26.9337 34.2745C27.1252 32.8995 27.6762 31.9605 28.2847 31.4295C23.5597 30.892 18.5927 29.0675 18.5927 20.9165C18.5927 18.594 19.4237 16.6965 20.7847 15.2065C20.5637 14.6705 19.8357 12.5065 20.9907 9.57651C20.9907 9.57651 22.7767 9.00551 26.8407 11.758C28.5382 11.2865 30.3582 11.05 32.1657 11.042C33.9737 11.0505 35.7947 11.287 37.4947 11.758C41.5547 9.00601 43.3387 9.57701 43.3387 9.57701C44.4967 12.507 43.7687 14.6705 43.5477 15.207C44.9117 16.696 45.7367 18.594 45.7367 20.917C45.7367 29.087 40.7602 30.886 36.0232 31.412C36.7862 32.072 37.4662 33.367 37.4662 35.352C37.4662 38.198 37.4422 40.4885 37.4422 41.189C37.4422 41.754 37.8252 42.418 38.9032 42.209C47.3512 39.393 53.4382 31.422 53.4382 22.0265C53.4392 10.28 43.9152 0.756012 32.1667 0.756012Z" fill="#181616"/>
<path d="M18.9517 31.298C18.9042 31.404 18.7377 31.4355 18.5867 31.363C18.4317 31.293 18.3457 31.1495 18.3957 31.043C18.4407 30.935 18.6077 30.9045 18.7622 30.977C18.9172 31.047 19.0047 31.192 18.9517 31.298ZM19.8132 32.26C19.7117 32.3535 19.5132 32.31 19.3782 32.161C19.2392 32.0125 19.2132 31.814 19.3162 31.719C19.4202 31.625 19.6127 31.669 19.7512 31.8175C19.8912 31.9675 19.9187 32.164 19.8127 32.2595L19.8132 32.26ZM20.6517 33.484C20.5217 33.575 20.3082 33.49 20.1767 33.3005C20.0457 33.112 20.0457 32.8855 20.1792 32.794C20.3112 32.703 20.5212 32.785 20.6542 32.9725C20.7852 33.165 20.7852 33.392 20.6517 33.484ZM21.8007 34.668C21.6842 34.7965 21.4357 34.762 21.2542 34.5865C21.0682 34.415 21.0167 34.1715 21.1332 34.043C21.2517 33.9145 21.5012 33.9505 21.6842 34.1245C21.8692 34.2955 21.9252 34.54 21.8007 34.668ZM23.3867 35.355C23.3347 35.522 23.0957 35.5975 22.8547 35.527C22.6137 35.454 22.4567 35.259 22.5047 35.091C22.5547 34.923 22.7957 34.8445 23.0382 34.92C23.2782 34.992 23.4362 35.185 23.3867 35.355ZM25.1267 35.4825C25.1332 35.6575 24.9287 35.8035 24.6757 35.8065C24.4217 35.8125 24.2157 35.6705 24.2127 35.4975C24.2127 35.3205 24.4127 35.1765 24.6667 35.1725C24.9197 35.1675 25.1267 35.3085 25.1267 35.4825ZM26.7467 35.207C26.7767 35.378 26.6017 35.554 26.3502 35.6005C26.1032 35.6465 25.8752 35.5405 25.8432 35.3705C25.8132 35.1955 25.9917 35.0205 26.2382 34.9745C26.4897 34.9305 26.7147 35.033 26.7467 35.207Z" fill="#181616"/>
<path d="M12.5941 54.151H7.24407C7.17776 54.151 7.11417 54.1773 7.06729 54.2242C7.02041 54.2711 6.99407 54.3347 6.99407 54.401V57.017C6.99407 57.0833 7.02041 57.1469 7.06729 57.1938C7.11417 57.2407 7.17776 57.267 7.24407 57.267H9.33057V60.517C9.33057 60.517 8.86207 60.677 7.56557 60.677C6.03757 60.677 3.90207 60.119 3.90207 55.423C3.90207 50.7265 6.12607 50.108 8.21407 50.108C10.0211 50.108 10.7991 50.426 11.2951 50.5795C11.4501 50.6265 11.5951 50.4715 11.5951 50.3335L12.1916 47.806C12.1925 47.7682 12.1843 47.7306 12.1676 47.6967C12.1509 47.6627 12.1261 47.6333 12.0956 47.611C11.8941 47.467 10.6671 46.781 7.56657 46.781C3.99457 46.781 0.330566 48.3 0.330566 55.606C0.330566 62.911 4.52557 63.9995 8.06057 63.9995C10.9876 63.9995 12.7631 62.7485 12.7631 62.7485C12.8361 62.7085 12.8441 62.606 12.8441 62.5585V54.4005C12.8441 54.3342 12.8177 54.2706 12.7708 54.2237C12.724 54.1768 12.6604 54.151 12.5941 54.151ZM39.9196 47.405H36.9066C36.8737 47.4051 36.8412 47.4118 36.8109 47.4245C36.7805 47.4372 36.753 47.4558 36.7299 47.4791C36.7068 47.5025 36.6885 47.5302 36.6761 47.5606C36.6637 47.591 36.6574 47.6236 36.6576 47.6565L36.6586 53.4785H31.9626V47.6565C31.9628 47.6237 31.9565 47.5911 31.9441 47.5607C31.9317 47.5303 31.9135 47.5026 31.8904 47.4793C31.8673 47.4559 31.8399 47.4374 31.8096 47.4246C31.7794 47.4119 31.7469 47.4052 31.7141 47.405H28.7016C28.6687 47.4051 28.6362 47.4118 28.6059 47.4245C28.5755 47.4372 28.548 47.4558 28.5249 47.4791C28.5018 47.5025 28.4835 47.5302 28.4711 47.5606C28.4587 47.591 28.4524 47.6236 28.4526 47.6565V63.4215C28.4526 63.56 28.5646 63.673 28.7016 63.673H31.7141C31.7469 63.6728 31.7795 63.6661 31.8097 63.6534C31.84 63.6406 31.8675 63.622 31.8906 63.5985C31.9137 63.5751 31.9319 63.5474 31.9443 63.5169C31.9566 63.4865 31.9628 63.4539 31.9626 63.421V56.678H36.6586L36.6506 63.421C36.6506 63.56 36.7626 63.673 36.9006 63.673H39.9196C39.9524 63.6728 39.985 63.6661 40.0152 63.6534C40.0455 63.6406 40.073 63.622 40.0961 63.5985C40.1192 63.5751 40.1374 63.5474 40.1498 63.5169C40.1621 63.4865 40.1683 63.4539 40.1681 63.421V47.656C40.1684 47.6232 40.1622 47.5906 40.1499 47.5601C40.1375 47.5297 40.1193 47.502 40.0962 47.4787C40.0731 47.4553 40.0456 47.4368 40.0152 47.4242C39.9849 47.4115 39.9524 47.405 39.9196 47.405ZM16.3366 47.7635C15.2646 47.7635 14.3946 48.64 14.3946 49.725C14.3946 50.8085 15.2646 51.6875 16.3366 51.6875C17.4096 51.6875 18.2791 50.8085 18.2791 49.725C18.2791 48.64 17.4091 47.7635 16.3366 47.7635ZM17.8146 52.5675H14.8116C14.6736 52.5675 14.5506 52.7095 14.5506 52.8475V63.2735C14.5506 63.58 14.7416 63.671 14.9886 63.671H17.6936C17.9911 63.671 18.0636 63.525 18.0636 63.2685V52.819C18.0637 52.7862 18.0574 52.7536 18.0449 52.7233C18.0325 52.6929 18.0142 52.6652 17.9911 52.6419C17.9679 52.6186 17.9404 52.6001 17.9102 52.5874C17.8799 52.5747 17.8474 52.5676 17.8146 52.5675ZM51.6176 52.591H48.6276C48.5947 52.5913 48.5623 52.598 48.532 52.6108C48.5018 52.6236 48.4744 52.6422 48.4514 52.6656C48.4283 52.689 48.4101 52.7168 48.3978 52.7472C48.3855 52.7776 48.3793 52.8102 48.3796 52.843V60.573C48.3796 60.573 47.6196 61.128 46.5421 61.128C45.4646 61.128 45.1786 60.6395 45.1786 59.584V52.843C45.1788 52.8101 45.1726 52.7775 45.1603 52.7471C45.1479 52.7166 45.1297 52.6889 45.1066 52.6655C45.0835 52.6421 45.056 52.6234 45.0257 52.6107C44.9954 52.5979 44.9629 52.5912 44.9301 52.591H41.8961C41.8297 52.5915 41.7662 52.6184 41.7195 52.6656C41.6729 52.7128 41.6468 52.7766 41.6471 52.843V60.094C41.6471 63.229 43.3946 63.996 45.7981 63.996C47.7701 63.996 49.3601 62.906 49.3601 62.906C49.3601 62.906 49.4351 63.481 49.4701 63.5485C49.5051 63.6165 49.5936 63.685 49.6901 63.685L51.6201 63.6765C51.653 63.6764 51.6856 63.6698 51.716 63.657C51.7464 63.6443 51.774 63.6257 51.7973 63.6023C51.8205 63.5789 51.8388 63.5511 51.8513 63.5206C51.8638 63.4901 51.8702 63.4575 51.8701 63.4245L51.8686 52.8415C51.8683 52.7752 51.8419 52.7117 51.7951 52.6647C51.7483 52.6177 51.6849 52.591 51.6186 52.5905L51.6176 52.591ZM59.7886 52.237C58.0906 52.237 56.9356 52.9945 56.9356 52.9945V47.656C56.9358 47.6232 56.9295 47.5906 56.9171 47.5602C56.9047 47.5298 56.8865 47.5021 56.8634 47.4788C56.8403 47.4554 56.8129 47.4369 56.7826 47.4241C56.7524 47.4114 56.7199 47.4047 56.6871 47.4045H53.6666C53.6336 47.4045 53.601 47.411 53.5705 47.4237C53.5401 47.4363 53.5125 47.4549 53.4893 47.4783C53.466 47.5016 53.4476 47.5294 53.4352 47.5599C53.4227 47.5904 53.4164 47.623 53.4166 47.656V63.421C53.4164 63.454 53.4227 63.4866 53.4352 63.5171C53.4476 63.5476 53.466 63.5754 53.4893 63.5988C53.5125 63.6221 53.5401 63.6407 53.5705 63.6533C53.601 63.666 53.6336 63.6725 53.6666 63.6725H55.7626C55.8576 63.6725 55.9286 63.624 55.9811 63.5385C56.0326 63.4535 56.1081 62.8115 56.1081 62.8115C56.1081 62.8115 57.3431 63.9815 59.6821 63.9815C62.4271 63.9815 64.0021 62.5895 64.0021 57.7305C64.0021 52.8715 61.4871 52.2365 59.7881 52.2365L59.7886 52.237ZM58.6086 61.119C57.5721 61.0875 56.8686 60.617 56.8686 60.617V55.6245C56.8686 55.6245 57.5626 55.1995 58.4136 55.1225C59.4901 55.026 60.5276 55.3515 60.5276 57.9195C60.5276 60.628 60.0601 61.1625 58.6091 61.1185L58.6086 61.119ZM26.7641 61.06C26.6326 61.06 26.2956 61.1135 25.9491 61.1135C24.8391 61.1135 24.4626 60.5975 24.4626 59.9295V55.4965H26.7226C26.7556 55.4965 26.7882 55.49 26.8187 55.4773C26.8492 55.4646 26.8768 55.446 26.9001 55.4226C26.9233 55.3991 26.9417 55.3714 26.9541 55.3408C26.9666 55.3102 26.9728 55.2775 26.9726 55.2445V52.8165C26.9727 52.7836 26.9663 52.751 26.9538 52.7205C26.9413 52.6901 26.9229 52.6624 26.8997 52.6391C26.8765 52.6158 26.8489 52.5973 26.8185 52.5846C26.7881 52.572 26.7555 52.5655 26.7226 52.5655H24.4626L24.4591 49.5805C24.4591 49.467 24.4011 49.4105 24.2701 49.4105H21.1901C21.0711 49.4105 21.0066 49.4635 21.0066 49.578V52.663C21.0066 52.663 19.4631 53.0355 19.3591 53.0655C19.3071 53.0807 19.2615 53.1122 19.2291 53.1555C19.1966 53.1988 19.1791 53.2514 19.1791 53.3055V55.244C19.1789 55.2768 19.1851 55.3094 19.1975 55.3398C19.2099 55.3702 19.2282 55.3979 19.2512 55.4212C19.2743 55.4446 19.3018 55.4632 19.332 55.4759C19.3623 55.4887 19.3947 55.4953 19.4276 55.4955H21.0066V60.1595C21.0066 63.6245 23.4366 63.9645 25.0766 63.9645C25.8251 63.9645 26.7216 63.7245 26.8696 63.6695C26.9596 63.636 27.0111 63.5435 27.0111 63.443L27.0131 61.3105C27.012 61.2444 26.9854 61.1813 26.9388 61.1345C26.8921 61.0877 26.8291 61.0608 26.7631 61.0595L26.7641 61.06Z" fill="#100E0F"/>
</g>
<defs>
<clipPath id="clip0_24_3080">
<rect width="64" height="64" fill="white" transform="translate(0.166626)"/>
</clipPath>
</defs>
</svg>
