<svg width="19" height="14" viewBox="0 0 19 14" fill="none" xmlns="http://www.w3.org/2000/svg">
<path fill-rule="evenodd" clip-rule="evenodd" d="M6.58042 0H13.3547C16.472 0 19 1.95912 19 4.375V9.625C19 12.0409 16.472 14 13.3547 14H6.58042C3.46312 14 0.935181 12.0409 0.935181 9.625V4.375C0.935181 1.95912 3.46312 0 6.58042 0ZM13.3551 12.6875C15.5342 12.6875 17.3068 11.3137 17.3068 9.62495V4.37495C17.3068 2.6862 15.5342 1.31245 13.3551 1.31245H6.58082C4.40176 1.31245 2.62915 2.6862 2.62915 4.37495V9.62495C2.62915 11.3137 4.40176 12.6875 6.58082 12.6875H13.3551Z" fill="#D31E44"/>
<path fill-rule="evenodd" clip-rule="evenodd" d="M5.45081 7C5.45081 5.06712 7.47293 3.5 9.967 3.5C12.4611 3.5 14.4832 5.06712 14.4832 7C14.4832 8.93287 12.4611 10.5 9.967 10.5C7.47293 10.5 5.45081 8.93287 5.45081 7ZM7.14453 6.99998C7.14453 8.20573 8.41132 9.18748 9.96715 9.18748C11.523 9.18748 12.7898 8.20573 12.7898 6.99998C12.7898 5.79335 11.523 4.81248 9.96715 4.81248C8.41132 4.81248 7.14453 5.79335 7.14453 6.99998Z" fill="#D31E44"/>
<ellipse cx="14.8233" cy="3.23749" rx="0.601783" ry="0.466375" fill="#D31E44"/>
</svg>
