<svg width="65" height="64" viewBox="0 0 65 64" fill="none" xmlns="http://www.w3.org/2000/svg">
<path d="M49.0666 48.9H41.9546V37.76C41.9546 35.104 41.9066 31.684 38.2546 31.684C34.5506 31.684 33.9826 34.58 33.9826 37.564V48.9H26.8706V25.992H33.6986V29.124H33.7946C35.1866 26.748 37.7786 25.324 40.5306 25.424C47.7386 25.424 49.0706 30.164 49.0706 36.336L49.0666 48.896V48.9ZM18.8466 22.86C17.7541 22.8547 16.7078 22.4187 15.9349 21.6465C15.162 20.8744 14.7249 19.8285 14.7186 18.736C14.7186 16.472 16.5826 14.608 18.8466 14.608C21.1106 14.608 22.9706 16.472 22.9746 18.736C22.9746 21 21.1106 22.86 18.8466 22.86ZM22.4026 48.9H15.2826V25.992H22.4026V48.9ZM52.6066 8H11.7066C10.7792 7.99461 9.88718 8.35544 9.22432 9.00406C8.56146 9.65269 8.18136 10.5367 8.16663 11.464V52.536C8.18136 53.4633 8.56146 54.3473 9.22432 54.9959C9.88718 55.6446 10.7792 56.0054 11.7066 56H52.6106C53.5402 56.0075 54.4351 55.6479 55.101 54.9993C55.7668 54.3506 56.1498 53.4654 56.1666 52.536V11.46C56.1498 10.5313 55.7666 9.64691 55.1005 8.99955C54.4344 8.35219 53.5394 7.99435 52.6106 8.004L52.6066 8Z" fill="#0A66C2"/>
</svg>
