<svg width="19" height="12" viewBox="0 0 19 12" fill="none" xmlns="http://www.w3.org/2000/svg">
<path d="M18.0894 1.61933C17.4176 1.84771 16.7018 1.99908 15.9555 2.07258C16.7233 1.71733 17.3093 1.15908 17.5847 0.486205C16.8689 0.816955 16.0786 1.05058 15.2363 1.18096C14.5566 0.62008 13.5879 0.272705 12.5311 0.272705C10.4808 0.272705 8.83011 1.56245 8.83011 3.14358C8.83011 3.37108 8.85495 3.58983 8.91591 3.79808C5.837 3.6817 3.11261 2.53808 1.28242 0.795955C0.962897 1.22558 0.775475 1.71733 0.775475 2.24671C0.775475 3.24071 1.43597 4.12183 2.4205 4.63195C1.82549 4.6232 1.24177 4.48933 0.747249 4.27846C0.747249 4.28721 0.747249 4.29858 0.747249 4.30996C0.747249 5.70471 2.03098 6.8632 3.71439 7.13008C3.41293 7.19395 3.08438 7.22458 2.74341 7.22458C2.50631 7.22458 2.26695 7.21408 2.04227 7.17558C2.52211 8.31221 3.88375 9.14783 5.5028 9.17496C4.24278 9.93883 2.64292 10.3991 0.910961 10.3991C0.607247 10.3991 0.315953 10.3886 0.0246582 10.3597C1.66517 11.1796 3.60939 11.6477 5.70603 11.6477C12.521 11.6477 16.2468 7.27271 16.2468 3.48045C16.2468 3.35358 16.2412 3.23108 16.2333 3.10945C16.9683 2.7052 17.5859 2.20033 18.0894 1.61933Z" fill="#D31E44"/>
</svg>
